<svg xmlns="http://www.w3.org/2000/svg" viewBox="0 0 512 512" fill="#FF4500">
  <path d="M374.2 298.3c5.4 0 9.7 4.3 9.7 9.7 0 5.3-4.3 9.7-9.7 
  9.7s-9.7-4.4-9.7-9.7 4.3-9.7 9.7-9.7zm-236.4 0c5.4 
  0 9.7 4.3 9.7 9.7 0 5.3-4.3 9.7-9.7 
  9.7s-9.7-4.4-9.7-9.7 4.4-9.7 9.7-9.7zM256 
  386.5c-21.8 0-41.2-8.7-55.4-22.8-3.8-3.8-3.8-10 
  0-13.8 3.8-3.8 10-3.8 13.8 0 10 10 23.7 
  15.7 41.5 15.7s31.5-5.7 41.5-15.7c3.8-3.8 
  10-3.8 13.8 0 3.8 3.8 3.8 10 0 
  13.8-14.2 14.1-33.6 22.8-55.2 
  22.8zm250.7-130.2c0 67.3-70.4 121.9-157.2 
  121.9-43 0-82-13.1-110.6-34.3-28.5 21.2-67.5 
  34.3-110.5 34.3-86.8 0-157.2-54.6-157.2-121.9 
  0-37.6 25.4-71.1 65.7-93.2-2.1-6.8-3.3-13.9-3.3-21.2 
  0-46.6 42.9-84.4 95.8-84.4 34.3 0 64.5 15.9 81.6 
  39.4 17.2-3.4 36-5.3 55.4-5.3 19.5 0 38.3 1.9 
  55.6 5.3 17.1-23.5 47.3-39.4 81.6-39.4 
  52.8 0 95.8 37.8 95.8 84.4 0 7.3-1.2 
  14.4-3.3 21.2 40.3 22.1 65.7 55.6 
  65.7 93.2z"/>
</svg>