<svg xmlns="http://www.w3.org/2000/svg" viewBox="0 0 24 24" fill="#1DA1F2">
  <path d="M24 4.557a9.83 9.83 0 0 
  1-2.828.775 4.932 4.932 0 0 0 2.165-2.724 9.864 
  9.864 0 0 1-3.127 1.195 4.916 4.916 0 0 
  0-8.38 4.482A13.94 13.94 0 0 1 1.671 
  3.149 4.916 4.916 0 0 0 3.195 9.86 4.902 
  4.902 0 0 1 .964 9.1v.061a4.918 4.918 0 0 
  0 3.946 4.827 4.902 4.902 0 0 1-2.212.084 4.919 
  4.919 0 0 0 4.588 3.417A9.867 9.867 0 0 
  1 0 19.54a13.94 13.94 0 0 0 7.548 2.212c9.057 
  0 14.01-7.496 14.01-13.986 0-.213-.005-.425-.014-.636A10.012 
  10.012 0 0 0 24 4.557z"/>
</svg>